<svg width="74" height="82" viewBox="0 0 74 82" fill="none" xmlns="http://www.w3.org/2000/svg">
<path d="M3.71006 81.5H53.6983C55.0566 81.5 56.1465 80.3857 56.1462 79.0256V53.6787H58.0837C59.442 53.6787 60.5318 52.5645 60.5318 51.2043C60.5318 49.8441 59.442 48.7299 58.0837 48.7299H56.1462V44.6425H60.5739C61.9322 44.6425 63.022 43.5283 63.022 42.1681C63.022 40.8079 61.9322 39.6937 60.5739 39.6937H56.1462V35.6059H58.0837C59.442 35.6059 60.5318 34.4916 60.5318 33.1314C60.5318 31.7713 59.442 30.657 58.0837 30.657H56.1462V26.5694H60.5739C61.9322 26.5694 63.022 25.4552 63.022 24.095C63.022 22.7349 61.9322 21.6206 60.5739 21.6206H56.1462V18.2295C56.1462 16.8693 55.0564 15.7551 53.6981 15.7551H3.71006C2.35178 15.7551 1.26196 16.8694 1.26196 18.2295V79.0256C1.26196 80.3858 2.35178 81.5 3.71006 81.5ZM51.25 20.7039V76.5512H6.15816V20.7039H51.25ZM28.4419 64.1624C28.4419 69.5795 32.8097 72.9286 38.0288 72.9286C43.2474 72.9286 47.615 69.5795 47.615 64.1624C47.615 58.8147 43.3213 54.4532 38.0288 54.4532C32.7358 54.4532 28.4419 58.8146 28.4419 64.1624ZM33.3381 64.1624C33.3381 61.5318 35.4489 59.4021 38.0288 59.4021C40.6081 59.4021 42.7188 61.5317 42.7188 64.1624C42.7188 66.7931 40.6081 68.9227 38.0288 68.9227C35.4489 68.9227 33.3381 66.793 33.3381 64.1624ZM61.3765 66.2449H70.2903C71.6483 66.2449 72.7385 65.1307 72.7382 63.7705V2.97442C72.7382 1.61425 71.6483 0.5 70.2901 0.5H20.3023C18.944 0.5 17.8542 1.61425 17.8542 2.97442V11.1947C17.8542 12.5548 18.944 13.6691 20.3023 13.6691C21.6606 13.6691 22.7504 12.5548 22.7504 11.1947V5.44884H67.8422V61.2961H61.3765C60.0182 61.2961 58.9284 62.4103 58.9284 63.7705C58.9284 65.1307 60.0182 66.2449 61.3765 66.2449ZM13.6576 59.5615H20.2939C21.6522 59.5615 22.742 58.4472 22.742 57.0871C22.742 55.7269 21.6522 54.6127 20.2939 54.6127H13.6576C12.2993 54.6127 11.2095 55.7269 11.2095 57.0871C11.2095 58.4472 12.2993 59.5615 13.6576 59.5615ZM13.6576 50.8215H43.7508C45.1091 50.8215 46.1989 49.7072 46.1989 48.3471C46.1989 46.9869 45.1091 45.8726 43.7508 45.8726H13.6576C12.2993 45.8726 11.2095 46.9869 11.2095 48.3471C11.2095 49.7072 12.2993 50.8215 13.6576 50.8215ZM13.6576 42.0815H43.7508C45.1091 42.0815 46.1989 40.9672 46.1989 39.6071C46.1989 38.2469 45.1091 37.1326 43.7508 37.1326H13.6576C12.2993 37.1326 11.2095 38.2469 11.2095 39.6071C11.2095 40.9672 12.2993 42.0815 13.6576 42.0815ZM13.6576 33.3415H23.1465C24.5048 33.3415 25.5946 32.2272 25.5946 30.867C25.5946 29.5069 24.5048 28.3926 23.1465 28.3926H13.6576C12.2993 28.3926 11.2095 29.5069 11.2095 30.867C11.2095 32.2272 12.2993 33.3415 13.6576 33.3415Z" fill="#DBD7E9" stroke="#DBD7E9"/>
</svg>
