<svg width="95" height="95" viewBox="0 0 95 95" fill="none" xmlns="http://www.w3.org/2000/svg">
<path d="M47.5007 92.7561C72.4946 92.7561 92.7563 72.4945 92.7563 47.5006C92.7563 22.5066 72.4946 2.245 47.5007 2.245C22.5067 2.245 2.24512 22.5066 2.24512 47.5006C2.24512 72.4945 22.5067 92.7561 47.5007 92.7561Z" fill="#FF4242"/>
<path d="M47.5 95C34.8123 95 22.8841 90.0593 13.9123 81.0877C4.94056 72.1161 0 60.1877 0 47.5C0 34.8123 4.94074 22.8841 13.9123 13.9123C22.8839 4.94056 34.8123 0 47.5 0C60.1877 0 72.1159 4.94074 81.0877 13.9123C90.0594 22.8839 95 34.8123 95 47.5C95 60.1877 90.0593 72.1159 81.0877 81.0877C72.1161 90.0594 60.1877 95 47.5 95ZM47.5 3.78479C23.3954 3.78479 3.78479 23.3954 3.78479 47.5C3.78479 71.6046 23.3954 91.2152 47.5 91.2152C71.6046 91.2152 91.2152 71.6046 91.2152 47.5C91.2152 23.3954 71.6046 3.78479 47.5 3.78479Z" fill="#434D56"/>
<path d="M64.5634 75.2871C64.0792 75.2871 63.5947 75.1023 63.2253 74.7329L48.2073 59.7149C47.8168 59.3244 47.1836 59.3244 46.7931 59.7149L31.7753 74.7329C31.0362 75.4717 29.838 75.4717 29.0988 74.7329L20.2669 65.901C19.5279 65.162 19.5279 63.9637 20.2669 63.2245L35.2851 48.2069C35.6756 47.8164 35.6756 47.1832 35.2851 46.7927L20.2671 31.7749C19.5281 31.0359 19.5281 29.8376 20.2671 29.0984L29.0989 20.2665C29.838 19.5277 31.0362 19.5277 31.7755 20.2665L46.7931 35.2847C47.1836 35.6752 47.8168 35.6752 48.2073 35.2847L63.2251 20.2667C63.9641 19.5279 65.1624 19.5279 65.9016 20.2667L74.7334 29.0986C75.4725 29.8376 75.4725 31.0359 74.7334 31.7751L59.7153 46.7927C59.3248 47.1832 59.3248 47.8164 59.7153 48.2069L74.7333 63.2247C75.4723 63.9637 75.4723 65.162 74.7333 65.9012L65.9014 74.7331C65.532 75.1025 65.0477 75.2871 64.5634 75.2871ZM47.5002 54.4391C47.9845 54.4391 48.4689 54.6239 48.8383 54.9933L63.8561 70.0113C64.2467 70.4018 64.8798 70.4018 65.2704 70.0113L70.0117 65.27C70.4022 64.8795 70.4022 64.2463 70.0116 63.8558L54.9937 48.838C54.2546 48.0989 54.2546 46.9007 54.9937 46.1615L70.0116 31.1437C70.4022 30.7531 70.4022 30.12 70.0117 29.7294L65.2704 24.9881C64.8798 24.5976 64.2467 24.5976 63.8561 24.9881L48.8383 40.0061C48.0993 40.745 46.9011 40.745 46.1618 40.0061L31.144 24.9881C30.7535 24.5976 30.1203 24.5976 29.7298 24.9881L24.9885 29.7294C24.598 30.12 24.598 30.7531 24.9885 31.1437L40.0065 46.1615C40.7455 46.9005 40.7455 48.0987 40.0065 48.838L24.9885 63.8558C24.598 64.2463 24.598 64.8795 24.9885 65.27L29.7298 70.0113C30.1203 70.4018 30.7535 70.4018 31.144 70.0113L46.1618 54.9933C46.5314 54.6241 47.0159 54.4391 47.5002 54.4391Z" fill="#434D56"/>
<path d="M84.3058 62.8299C84.0906 62.8299 83.872 62.793 83.6582 62.7151C82.6763 62.3572 82.1702 61.2712 82.5279 60.2893C84.3362 55.3253 85.0766 49.9066 84.6689 44.6183C84.5886 43.5763 85.3682 42.6666 86.4103 42.586C87.4534 42.5027 88.362 43.2854 88.4426 44.3274C88.8914 50.15 88.0757 56.1174 86.0841 61.5847C85.8043 62.3527 85.0786 62.8299 84.3058 62.8299Z" fill="#434D56"/>
<path d="M85.2712 38.9844C84.4401 38.9844 83.6781 38.4327 83.4474 37.5924C83.2986 37.0512 83.1357 36.5058 82.9626 35.9717C82.6403 34.9775 83.1851 33.9102 84.1794 33.5879C85.1732 33.2655 86.2408 33.8102 86.5631 34.8047C86.7539 35.3931 86.9337 35.9937 87.0973 36.5903C87.374 37.5982 86.7815 38.6394 85.7734 38.9163C85.6055 38.9623 85.4369 38.9844 85.2712 38.9844Z" fill="#434D56"/>
<path d="M73.3964 30.4366L64.5644 21.605L47.5013 38.668L30.4382 21.605L21.6062 30.4366L38.6695 47.4999L21.6062 64.5631L30.4382 73.3948L47.5013 56.3317L64.5644 73.3948L73.3964 64.5631L56.3331 47.4999L73.3964 30.4366Z" fill="#F2F2F2"/>
</svg>
