<svg width="172" height="156" viewBox="0 0 172 156" fill="none" xmlns="http://www.w3.org/2000/svg">
<g clip-path="url(#clip0_514_2944)">
<path d="M138.391 111.491H15.9874C13.7435 111.491 11.9155 109.663 11.9155 107.396V27.2242C11.9155 24.9575 13.7435 23.1294 15.9874 23.1294H138.391C140.635 23.1294 142.462 24.9575 142.462 27.2242V107.397C142.462 109.663 140.635 111.491 138.391 111.491Z" fill="#D4D3F2" stroke="#3635BE" stroke-width="2.5"/>
<path d="M142 43.5H13V60.5H142V43.5Z" fill="#3635BE"/>
<path d="M47.9185 84.013H26.6312C24.7943 84.013 23.3052 82.5175 23.3052 80.6726C23.3052 78.8278 24.7943 77.3323 26.6312 77.3323H47.9188C49.7558 77.3323 51.2449 78.8278 51.2449 80.6726C51.2449 82.5175 49.7558 84.013 47.9185 84.013Z" fill="white"/>
<path d="M111.781 100.048H26.6312C24.7943 100.048 23.3052 98.5522 23.3052 96.7073C23.3052 94.8625 24.7943 93.3669 26.6312 93.3669H111.781C113.618 93.3669 115.107 94.8625 115.107 96.7073C115.107 98.5519 113.618 100.048 111.781 100.048Z" fill="white"/>
<path d="M79.85 84.013H58.5624C56.7254 84.013 55.2363 82.5175 55.2363 80.6726C55.2363 78.8278 56.7254 77.3323 58.5624 77.3323H79.85C81.6869 77.3323 83.176 78.8278 83.176 80.6726C83.1763 82.5175 81.6872 84.013 79.85 84.013Z" fill="white"/>
<path d="M111.781 84.013H90.4935C88.6566 84.013 87.1675 82.5175 87.1675 80.6726C87.1675 78.8278 88.6566 77.3323 90.4935 77.3323H111.781C113.618 77.3323 115.107 78.8278 115.107 80.6726C115.107 82.5175 113.618 84.013 111.781 84.013Z" fill="white"/>
<path fill-rule="evenodd" clip-rule="evenodd" d="M158.508 123.304C159.502 122.088 160.395 120.816 161.187 119.499C162.93 116.603 164.186 113.492 164.953 110.284C165.73 107.04 166.007 103.697 165.782 100.378C165.586 97.4825 165.008 94.6053 164.047 91.8284C163.093 89.0734 161.763 86.4171 160.054 83.9393C159.036 82.4628 157.883 81.0497 156.596 79.7168C154.706 77.76 152.633 76.087 150.43 74.699C148.064 73.2077 145.547 72.0453 142.948 71.2131C139.692 70.1709 136.306 69.6467 132.919 69.6428C130.283 69.6399 127.648 69.952 125.073 70.5803C122.175 71.2877 119.354 72.3959 116.698 73.9066C114.363 75.2345 112.155 76.8736 110.134 78.8247C107.595 81.2767 105.538 84.0408 103.965 86.9989C102.426 89.8951 101.35 92.9772 100.741 96.1347C100.113 99.3878 99.9792 102.721 100.342 106.013C100.813 110.279 102.118 114.477 104.26 118.342C105.632 120.815 107.346 123.152 109.405 125.283C112.673 128.667 116.488 131.202 120.575 132.882C125.544 134.926 130.915 135.707 136.189 135.214C140.616 134.801 144.975 133.491 148.972 131.279" fill="white"/>
<path d="M158.508 123.304C159.502 122.088 160.395 120.816 161.187 119.499C162.93 116.603 164.186 113.492 164.953 110.284C165.73 107.04 166.007 103.697 165.782 100.378C165.586 97.4825 165.008 94.6053 164.047 91.8284C163.093 89.0734 161.763 86.4171 160.054 83.9393C159.036 82.4628 157.883 81.0497 156.596 79.7168C154.706 77.76 152.633 76.087 150.43 74.699C148.064 73.2077 145.547 72.0453 142.948 71.2131C139.692 70.1709 136.306 69.6467 132.919 69.6428C130.283 69.6399 127.648 69.952 125.073 70.5803C122.175 71.2877 119.354 72.3959 116.698 73.9066C114.363 75.2345 112.155 76.8736 110.134 78.8247C107.595 81.2767 105.538 84.0408 103.965 86.9989C102.426 89.8951 101.35 92.9772 100.741 96.1347C100.113 99.3878 99.9792 102.721 100.342 106.013C100.813 110.279 102.118 114.477 104.26 118.342C105.632 120.815 107.346 123.152 109.405 125.283C112.673 128.667 116.488 131.202 120.575 132.882C125.544 134.926 130.915 135.707 136.189 135.214C140.616 134.801 144.975 133.491 148.972 131.279" stroke="#3635BE" stroke-width="2.5" stroke-linecap="round" stroke-linejoin="round"/>
<path fill-rule="evenodd" clip-rule="evenodd" d="M151.358 129.913C153.434 128.577 155.28 126.91 156.48 125.565L151.358 129.913Z" fill="white"/>
<path d="M151.358 129.913C153.434 128.577 155.28 126.91 156.48 125.565" stroke="#3635BE" stroke-width="2.5" stroke-linecap="round"/>
<path d="M163 104.369C162.796 104.373 162.591 104.375 162.386 104.375C144.347 104.375 129.578 90.3116 128.34 72.5C113.982 74.7647 103 87.2518 103 102.317C103 118.986 116.447 132.5 133.034 132.5C148.935 132.5 161.95 120.082 163 104.369Z" fill="#D4D3F2"/>
<path fill-rule="evenodd" clip-rule="evenodd" d="M121.588 101.338C120.714 100.531 119.359 100.593 118.561 101.476C117.763 102.359 117.824 103.73 118.698 104.536L128.783 113.849C130.006 114.979 131.903 114.892 133.021 113.656C133.068 113.603 133.068 113.603 133.113 113.549L147.505 96.0512C148.261 95.1312 148.137 93.7655 147.227 93.0006C146.317 92.2357 144.966 92.3614 144.209 93.2813L130.679 109.732L121.588 101.338Z" fill="#28BA24" stroke="#4E4DE8" stroke-width="2.5" stroke-linecap="round"/>
<path fill-rule="evenodd" clip-rule="evenodd" d="M122.874 75.652C121.481 76.1746 120.121 76.8096 118.806 77.5573C116.763 78.7192 114.832 80.1532 113.064 81.8604C112.34 82.5602 111.66 83.289 111.025 84.0433M109.061 86.6701C108.556 87.4329 108.092 88.2148 107.667 89.0128C107.354 89.6022 107.063 90.2005 106.793 90.8063" fill="white"/>
<path d="M123.313 76.8223C123.96 76.5798 124.287 75.8593 124.045 75.2129C123.802 74.5665 123.082 74.2391 122.435 74.4816L123.313 76.8223ZM118.806 77.5573L119.424 78.6438L118.806 77.5573ZM113.064 81.8604L112.196 80.9612L113.064 81.8604ZM110.069 83.2385C109.624 83.7667 109.692 84.5552 110.22 84.9997C110.748 85.4443 111.537 85.3764 111.981 84.8482L110.069 83.2385ZM110.103 87.3599C110.484 86.7842 110.326 86.0087 109.751 85.6277C109.175 85.2467 108.399 85.4046 108.018 85.9803L110.103 87.3599ZM107.667 89.0128L108.771 89.5996L107.667 89.0128ZM105.651 90.2984C105.371 90.9293 105.655 91.668 106.285 91.9485C106.916 92.229 107.655 91.9449 107.935 91.3141L105.651 90.2984ZM122.435 74.4816C120.981 75.0272 119.56 75.6901 118.188 76.4708L119.424 78.6438C120.681 77.929 121.981 77.322 123.313 76.8223L122.435 74.4816ZM118.188 76.4708C116.055 77.684 114.04 79.1808 112.196 80.9612L113.933 82.7596C115.624 81.1257 117.472 79.7544 119.424 78.6438L118.188 76.4708ZM112.196 80.9612C111.44 81.691 110.731 82.4513 110.069 83.2385L111.981 84.8482C112.589 84.1268 113.239 83.4294 113.933 82.7596L112.196 80.9612ZM108.018 85.9803C107.491 86.7766 107.007 87.5929 106.564 88.4261L108.771 89.5996C109.177 88.8366 109.621 88.0891 110.103 87.3599L108.018 85.9803ZM106.564 88.4261C106.236 89.0415 105.932 89.666 105.651 90.2984L107.935 91.3141C108.193 90.7349 108.472 90.163 108.771 89.5996L106.564 88.4261Z" fill="#4E4DE8"/>
</g>
<defs>
<clipPath id="clip0_514_2944">
<rect width="172" height="155" fill="white" transform="translate(0 0.5)"/>
</clipPath>
</defs>
</svg>
