<svg width="172" height="156" viewBox="0 0 172 156" fill="none" xmlns="http://www.w3.org/2000/svg">
<path d="M138.391 111.491H15.9874C13.7435 111.491 11.9155 109.663 11.9155 107.396V27.2242C11.9155 24.9575 13.7435 23.1294 15.9874 23.1294H138.391C140.635 23.1294 142.462 24.9575 142.462 27.2242V107.397C142.462 109.663 140.635 111.491 138.391 111.491Z" fill="#EBEBEB" stroke="#8A8A8A" stroke-width="2.5"/>
<path d="M142 43.5H13V60.5H142V43.5Z" fill="#8A8A8A"/>
<path d="M111.781 84.013H90.4935C88.6566 84.013 87.1675 82.5175 87.1675 80.6726C87.1675 78.8278 88.6566 77.3323 90.4935 77.3323H111.781C113.618 77.3323 115.107 78.8278 115.107 80.6726C115.107 82.5175 113.618 84.013 111.781 84.013Z" fill="white"/>
<path d="M47.9185 84.013H26.6312C24.7943 84.013 23.3052 82.5175 23.3052 80.6726C23.3052 78.8278 24.7943 77.3323 26.6312 77.3323H47.9188C49.7558 77.3323 51.2449 78.8278 51.2449 80.6726C51.2449 82.5175 49.7558 84.013 47.9185 84.013Z" fill="white"/>
<path d="M111.781 100.048H26.6312C24.7943 100.048 23.3052 98.5522 23.3052 96.7073C23.3052 94.8625 24.7943 93.3669 26.6312 93.3669H111.781C113.618 93.3669 115.107 94.8625 115.107 96.7073C115.107 98.5519 113.618 100.048 111.781 100.048Z" fill="white"/>
<path d="M79.85 84.013H58.5624C56.7254 84.013 55.2363 82.5175 55.2363 80.6726C55.2363 78.8278 56.7254 77.3323 58.5624 77.3323H79.85C81.6869 77.3323 83.176 78.8278 83.176 80.6726C83.1763 82.5175 81.6872 84.013 79.85 84.013Z" fill="white"/>
<g clip-path="url(#clip0_514_3145)">
<path d="M133 136.566C152.09 136.566 167.566 121.09 167.566 102C167.566 82.9099 152.09 67.4343 133 67.4343C113.91 67.4343 98.4341 82.9099 98.4341 102C98.4341 121.09 113.91 136.566 133 136.566Z" fill="#FF4242"/>
<path d="M152.626 89.0677L145.932 82.3743L133 95.3063L120.068 82.3743L113.374 89.0677L126.306 102L113.374 114.932L120.068 121.626L133 108.694L145.932 121.626L152.626 114.932L139.693 102L152.626 89.0677Z" fill="#F2F2F2"/>
<path d="M133 138C123.384 138 114.344 134.255 107.544 127.456C100.744 120.656 97 111.616 97 102C97 92.3841 100.745 83.3437 107.544 76.5441C114.344 69.7444 123.384 66 133 66C142.616 66 151.656 69.7446 158.456 76.5441C165.256 83.3436 169 92.3841 169 102C169 111.616 165.255 120.656 158.456 127.456C151.656 134.256 142.616 138 133 138ZM133 68.8685C114.731 68.8685 99.8685 83.7313 99.8685 102C99.8685 120.269 114.731 135.132 133 135.132C151.269 135.132 166.132 120.269 166.132 102C166.132 83.7313 151.269 68.8685 133 68.8685Z" fill="#434D56"/>
<path d="M145.932 123.06C145.565 123.06 145.198 122.92 144.918 122.64L133.707 111.429C133.317 111.039 132.683 111.039 132.293 111.429L121.082 122.64C120.522 123.2 119.614 123.2 119.054 122.64L112.36 115.946C111.8 115.386 111.8 114.478 112.36 113.918L123.571 102.707C123.962 102.317 123.962 101.684 123.571 101.293L112.36 90.0823C111.8 89.5222 111.8 88.614 112.36 88.0538L119.054 81.3602C119.614 80.8002 120.522 80.8002 121.082 81.3602L132.293 92.5711C132.683 92.9617 133.317 92.9617 133.707 92.5711L144.918 81.3603C145.478 80.8003 146.386 80.8003 146.946 81.3603L153.64 88.0539C154.2 88.614 154.2 89.5222 153.64 90.0824L142.429 101.293C142.038 101.684 142.038 102.317 142.429 102.707L153.64 113.918C154.2 114.478 154.2 115.386 153.64 115.946L146.946 122.64C146.666 122.92 146.299 123.06 145.932 123.06ZM133 107.259C133.367 107.259 133.734 107.399 134.014 107.679L145.225 118.89C145.615 119.281 146.249 119.281 146.639 118.89L149.89 115.639C150.281 115.249 150.281 114.616 149.89 114.225L138.679 103.014C138.119 102.454 138.119 101.546 138.679 100.986L149.89 89.7751C150.281 89.3845 150.281 88.7514 149.89 88.3608L146.639 85.1098C146.249 84.7193 145.615 84.7193 145.225 85.1098L134.014 96.3207C133.454 96.8807 132.546 96.8807 131.986 96.3207L120.775 85.1098C120.384 84.7193 119.751 84.7193 119.361 85.1098L116.11 88.3608C115.719 88.7514 115.719 89.3845 116.11 89.7751L127.321 100.986C127.881 101.546 127.881 102.454 127.321 103.014L116.11 114.225C115.719 114.616 115.719 115.249 116.11 115.639L119.361 118.89C119.751 119.281 120.384 119.281 120.775 118.89L131.986 107.679C132.266 107.4 132.633 107.259 133 107.259Z" fill="#434D56"/>
<path d="M160.895 113.618C160.732 113.618 160.567 113.59 160.405 113.531C159.66 113.26 159.277 112.436 159.548 111.692C160.918 107.93 161.48 103.823 161.171 99.8154C161.11 99.0256 161.701 98.3361 162.49 98.2751C163.281 98.212 163.97 98.8051 164.031 99.5949C164.371 104.008 163.753 108.53 162.243 112.674C162.031 113.256 161.481 113.618 160.895 113.618Z" fill="#434D56"/>
<path d="M161.627 95.5463C160.997 95.5463 160.419 95.1282 160.244 94.4913C160.132 94.0811 160.008 93.6678 159.877 93.2629C159.633 92.5095 160.046 91.7006 160.799 91.4563C161.552 91.2119 162.361 91.6248 162.606 92.3785C162.75 92.8245 162.887 93.2797 163.011 93.7318C163.22 94.4957 162.771 95.2848 162.007 95.4947C161.88 95.5295 161.752 95.5463 161.627 95.5463Z" fill="#434D56"/>
</g>
<defs>
<clipPath id="clip0_514_3145">
<rect width="72" height="72" fill="white" transform="translate(97 66)"/>
</clipPath>
</defs>
</svg>
