<svg width="32" height="32" viewBox="0 0 32 32" fill="none" xmlns="http://www.w3.org/2000/svg">
<g id="vscode-icons:file-type-pdf2">
<path id="Vector" d="M24.0999 2.07202L29.6639 7.87202V29.928H8.87891V30H29.7349V7.94502L24.0999 2.07202Z" fill="#909090"/>
<path id="Vector_2" d="M24.0311 2H8.80811V29.928H29.6641V7.873L24.0311 2Z" fill="#F4F4F4"/>
<path id="Vector_3" d="M8.65489 3.5H2.26489V10.327H22.3649V3.5H8.65489Z" fill="#7A7B7C"/>
<path id="Vector_4" d="M22.472 10.211H2.39502V3.37903H22.472V10.211Z" fill="#DD2025"/>
<path id="Vector_5" d="M9.05212 4.53398H7.74512V9.33398H8.77312V7.71498L9.00012 7.72798C9.22076 7.72494 9.43938 7.68541 9.64712 7.61098C9.82974 7.54897 9.99758 7.4499 10.1401 7.31998C10.2863 7.19742 10.4011 7.04179 10.4751 6.86598C10.5764 6.57469 10.6122 6.26469 10.5801 5.95798C10.5744 5.73883 10.536 5.52177 10.4661 5.31398C10.4031 5.16379 10.3095 5.0284 10.1912 4.91647C10.0729 4.80454 9.93256 4.71855 9.77912 4.66398C9.64683 4.61499 9.50974 4.58013 9.37012 4.55998C9.26465 4.54281 9.15797 4.53411 9.05112 4.53398M8.86212 6.82798H8.77312V5.34798H8.96612C9.0513 5.34184 9.13677 5.35491 9.21622 5.38624C9.29566 5.41757 9.36706 5.46635 9.42512 5.52898C9.54544 5.68999 9.60971 5.88598 9.60812 6.08698C9.60812 6.33298 9.60812 6.55598 9.38612 6.71298C9.22622 6.80105 9.04415 6.84167 8.86212 6.82798ZM12.5331 4.52098C12.4221 4.52098 12.3141 4.52898 12.2381 4.53198L12.0001 4.53798H11.2201V9.33798H12.1381C12.4889 9.347 12.8381 9.28756 13.1661 9.16298C13.4302 9.05868 13.664 8.88987 13.8461 8.67198C14.0246 8.45313 14.152 8.19726 14.2191 7.92298C14.298 7.61291 14.3363 7.29391 14.3331 6.97398C14.3527 6.59614 14.3235 6.21734 14.2461 5.84698C14.1721 5.57467 14.0351 5.32358 13.8461 5.11398C13.6979 4.94449 13.5156 4.80819 13.3111 4.71398C13.1359 4.63278 12.9516 4.57301 12.7621 4.53598C12.6868 4.52363 12.6105 4.51794 12.5341 4.51898M12.3521 8.45598H12.2521V5.39198H12.2651C12.4713 5.36814 12.6799 5.40535 12.8651 5.49898C13.0008 5.60731 13.1113 5.74378 13.1891 5.89898C13.2731 6.06232 13.3215 6.24159 13.3311 6.42498C13.3401 6.64498 13.3311 6.82498 13.3311 6.97398C13.3348 7.14561 13.3238 7.31724 13.2981 7.48698C13.2667 7.66105 13.2097 7.82952 13.1291 7.98698C13.0381 8.13382 12.9137 8.25715 12.7661 8.34698C12.6428 8.42698 12.4967 8.46423 12.3501 8.45298M17.4301 4.53798H15.0001V9.33798H16.0281V7.43398H17.3281V6.54198H16.0281V5.42998H17.4281V4.53798" fill="#464648"/>
<path id="Vector_6" d="M21.7809 20.255C21.7809 20.255 24.9689 19.677 24.9689 20.766C24.9689 21.855 22.9939 21.412 21.7809 20.255ZM19.4239 20.338C18.9173 20.4496 18.4237 20.6135 17.9509 20.827L18.3509 19.927C18.7509 19.027 19.1659 17.8 19.1659 17.8C19.6421 18.6041 20.1975 19.3586 20.8239 20.052C20.3523 20.1223 19.885 20.2184 19.4239 20.34V20.338ZM18.1619 13.838C18.1619 12.889 18.4689 12.63 18.7079 12.63C18.9469 12.63 19.2159 12.745 19.2249 13.569C19.147 14.3976 18.9735 15.2143 18.7079 16.003C18.343 15.3413 18.1546 14.5967 18.1609 13.841L18.1619 13.838ZM13.5129 24.354C12.5349 23.769 15.5639 21.968 16.1129 21.91C16.1099 21.911 14.5369 24.966 13.5129 24.354ZM25.8999 20.895C25.8899 20.795 25.7999 19.688 23.8299 19.735C23.0088 19.7206 22.1879 19.7785 21.3769 19.908C20.5908 19.1167 19.9141 18.2238 19.3649 17.253C19.7107 16.2523 19.9203 15.2096 19.9879 14.153C19.9589 12.953 19.6719 12.265 18.7519 12.275C17.8319 12.285 17.6979 13.09 17.8189 14.288C17.9374 15.0931 18.1609 15.8791 18.4839 16.626C18.4839 16.626 18.0589 17.949 17.4969 19.265C16.9349 20.581 16.5509 21.271 16.5509 21.271C15.5735 21.5888 14.6535 22.0615 13.8259 22.671C13.0019 23.438 12.6669 24.027 13.1009 24.616C13.4749 25.124 14.7839 25.239 15.9539 23.706C16.5745 22.9134 17.1424 22.081 17.6539 21.214C17.6539 21.214 19.4379 20.725 19.9929 20.591C20.5479 20.457 21.2189 20.351 21.2189 20.351C21.2189 20.351 22.8479 21.99 24.4189 21.932C25.9899 21.874 25.9139 20.993 25.9039 20.897" fill="#DD2025"/>
<path id="Vector_7" d="M23.9541 2.07703V7.95003H29.5871L23.9541 2.07703Z" fill="#909090"/>
<path id="Vector_8" d="M24.031 2V7.873H29.664L24.031 2Z" fill="#F4F4F4"/>
<path id="Vector_9" d="M8.97497 4.45702H7.66797V9.25702H8.69997V7.63902L8.92797 7.65202C9.14861 7.64897 9.36723 7.60944 9.57497 7.53502C9.75759 7.47301 9.92543 7.37394 10.068 7.24402C10.213 7.12112 10.3268 6.96551 10.4 6.79002C10.5012 6.49873 10.5371 6.18872 10.505 5.88202C10.4993 5.66287 10.4608 5.4458 10.391 5.23802C10.328 5.08782 10.2344 4.95243 10.1161 4.84051C9.99778 4.72858 9.85741 4.64258 9.70397 4.58802C9.57108 4.53854 9.4333 4.50335 9.29297 4.48302C9.1875 4.46584 9.08083 4.45715 8.97397 4.45702M8.78497 6.75102H8.69597V5.27102H8.88997C8.97515 5.26487 9.06062 5.27795 9.14007 5.30928C9.21952 5.34061 9.29091 5.38939 9.34897 5.45202C9.46929 5.61303 9.53356 5.80902 9.53197 6.01002C9.53197 6.25602 9.53197 6.47902 9.30997 6.63602C9.15008 6.72409 8.968 6.7637 8.78597 6.75002M12.456 4.44402C12.345 4.44402 12.237 4.45202 12.161 4.45502L11.926 4.46102H11.146V9.26101H12.064C12.4148 9.27004 12.7639 9.2106 13.092 9.08602C13.3561 8.98171 13.5899 8.81291 13.772 8.59502C13.9504 8.37617 14.0778 8.1203 14.145 7.84602C14.2238 7.53594 14.2622 7.21695 14.259 6.89702C14.2785 6.51917 14.2493 6.14038 14.172 5.77002C14.0979 5.4977 13.9609 5.24662 13.772 5.03702C13.6238 4.86753 13.4415 4.73122 13.237 4.63702C13.0618 4.55581 12.8775 4.49605 12.688 4.45902C12.6126 4.44666 12.5363 4.44097 12.46 4.44202M12.278 8.37901H12.178V5.31502H12.191C12.3971 5.29118 12.6058 5.32838 12.791 5.42202C12.9266 5.53034 13.0372 5.66681 13.115 5.82202C13.1989 5.98535 13.2473 6.16462 13.257 6.34802C13.266 6.56802 13.257 6.74802 13.257 6.89702C13.2607 7.06864 13.2496 7.24027 13.224 7.41002C13.1925 7.58408 13.1356 7.75256 13.055 7.91002C12.9639 8.05686 12.8396 8.18019 12.692 8.27002C12.5687 8.35002 12.4225 8.38727 12.276 8.37602M17.353 4.46102H14.923V9.26101H15.951V7.35702H17.251V6.46502H15.951V5.35302H17.351V4.46102" fill="white"/>
</g>
</svg>
