<svg width="95" height="95" viewBox="0 0 95 95" fill="none" xmlns="http://www.w3.org/2000/svg">
<g clip-path="url(#clip0_575_2595)">
<path d="M47.4999 93.1076C72.6883 93.1076 93.1076 72.6883 93.1076 47.4999C93.1076 22.3116 72.6883 1.89233 47.4999 1.89233C22.3116 1.89233 1.89233 22.3116 1.89233 47.4999C1.89233 72.6883 22.3116 93.1076 47.4999 93.1076Z" fill="#58B4ED" fill-opacity="0.6"/>
<path d="M47.5001 76.3595C44.8872 76.3595 42.769 74.2413 42.769 71.6285V38.7002C42.769 36.0873 44.8872 33.9691 47.5001 33.9691C50.113 33.9691 52.2312 36.0873 52.2312 38.7002V71.6285C52.2312 74.2413 50.113 76.3595 47.5001 76.3595Z" fill="white"/>
<path d="M47.5001 28.1025C46.2549 28.1025 45.0361 27.5973 44.1541 26.7172C43.2743 25.8353 42.769 24.6167 42.769 23.3715C42.769 22.1263 43.2743 20.9055 44.1541 20.0255C45.0361 19.1456 46.2549 18.6404 47.5001 18.6404C48.7453 18.6404 49.964 19.1456 50.8459 20.0255C51.726 20.9055 52.2312 22.1263 52.2312 23.3715C52.2312 24.6167 51.726 25.8353 50.8459 26.7172C49.964 27.5973 48.7453 28.1025 47.5001 28.1025Z" fill="white"/>
<path d="M47.5 95C34.8121 95 22.8841 90.0593 13.9125 81.0875C4.94074 72.1159 0 60.1879 0 47.5C0 34.8121 4.94074 22.8841 13.9125 13.9125C22.8841 4.94074 34.8121 0 47.5 0C60.1879 0 72.1159 4.94074 81.0875 13.9125C90.0593 22.8841 95 34.8121 95 47.5C95 60.1879 90.0593 72.1159 81.0875 81.0875C72.1159 90.0593 60.1879 95 47.5 95ZM47.5 3.78479C23.3954 3.78479 3.78479 23.3954 3.78479 47.5C3.78479 71.6046 23.3954 91.2152 47.5 91.2152C71.6046 91.2152 91.2152 71.6046 91.2152 47.5C91.2152 23.3954 71.6046 3.78479 47.5 3.78479Z" fill="#666666"/>
<path d="M79.7895 71.2407C79.424 71.2407 79.0546 71.135 78.7291 70.9145C77.8641 70.3278 77.6381 69.1513 78.2246 68.2861C80.6338 64.7327 82.3907 60.8293 83.4463 56.6842C83.7038 55.6711 84.7333 55.059 85.7471 55.3173C86.7602 55.575 87.3719 56.6055 87.114 57.6181C85.9503 62.1888 84.0133 66.4928 81.3576 70.4097C80.9917 70.9498 80.3959 71.2407 79.7895 71.2407Z" fill="#666666"/>
<path d="M86.4488 51.0955C86.4211 51.0955 86.3935 51.095 86.3656 51.0937C85.3214 51.0486 84.5115 50.1656 84.5567 49.1213C84.5797 48.5864 84.5916 48.0407 84.5916 47.4998C84.5916 46.4548 85.439 45.6074 86.484 45.6074C87.529 45.6074 88.3764 46.4548 88.3764 47.4998C88.3764 48.095 88.3636 48.6955 88.338 49.2848C88.294 50.3012 87.4563 51.0955 86.4488 51.0955Z" fill="#666666"/>
<path d="M47.4999 78.252C43.8478 78.252 40.8765 75.2806 40.8765 71.6285V38.7003C40.8765 35.0481 43.8478 32.0768 47.4999 32.0768C51.1521 32.0768 54.1234 35.0481 54.1234 38.7003V71.6285C54.1234 75.2806 51.1521 78.252 47.4999 78.252ZM47.4999 35.8616C45.9347 35.8616 44.6613 37.135 44.6613 38.7003V71.6285C44.6613 73.1938 45.9347 74.4672 47.4999 74.4672C49.0652 74.4672 50.3386 73.1938 50.3386 71.6285V38.7003C50.3386 37.135 49.0652 35.8616 47.4999 35.8616Z" fill="#666666"/>
<path d="M47.4999 29.995C45.7584 29.995 44.0515 29.2886 42.8173 28.0568C41.5827 26.8195 40.8765 25.1127 40.8765 23.3715C40.8765 21.6274 41.5832 19.9203 42.8156 18.6876C44.0517 17.4542 45.7586 16.748 47.4999 16.748C49.2411 16.748 50.9479 17.4542 52.1822 18.6859C53.4166 19.9202 54.1234 21.6274 54.1234 23.3715C54.1234 25.1129 53.417 26.8197 52.1852 28.054C50.9481 29.2886 49.2413 29.995 47.4999 29.995ZM47.4999 20.5328C46.7531 20.5328 46.0208 20.8364 45.4906 21.3652C44.9644 21.8916 44.6614 22.6234 44.6614 23.3715C44.6614 24.1182 44.965 24.8505 45.4938 25.3808C46.0209 25.9066 46.7533 26.2102 47.5001 26.2102C48.2468 26.2102 48.9789 25.9066 49.509 25.3778C50.0351 24.8503 50.3386 24.1182 50.3386 23.3715C50.3386 22.6236 50.0356 21.892 49.5076 21.3639C48.9789 20.8364 48.2466 20.5328 47.4999 20.5328Z" fill="#666666"/>
</g>
<defs>
<clipPath id="clip0_575_2595">
<rect width="95" height="95" fill="white"/>
</clipPath>
</defs>
</svg>
