<svg width="250" height="144" viewBox="0 0 250 144" fill="none" xmlns="http://www.w3.org/2000/svg">
<rect y="7.5" width="250" height="136" fill="white"/>
<path d="M172.5 13.5V19.5" stroke="#4E4DE8" stroke-width="2.5" stroke-linecap="round" stroke-linejoin="round"/>
<path d="M172.5 27.5V33.5" stroke="#4E4DE8" stroke-width="2.5" stroke-linecap="round" stroke-linejoin="round"/>
<path d="M162.5 23.5H168.5" stroke="#4E4DE8" stroke-width="2.5" stroke-linecap="round" stroke-linejoin="round"/>
<path d="M176.5 23.5H182.5" stroke="#4E4DE8" stroke-width="2.5" stroke-linecap="round" stroke-linejoin="round"/>
<path d="M89.5 116.5V120.5" stroke="#4E4DE8" stroke-width="2.5" stroke-linecap="round" stroke-linejoin="round"/>
<path d="M89.5 128.5V132.5" stroke="#4E4DE8" stroke-width="2.5" stroke-linecap="round" stroke-linejoin="round"/>
<path d="M81.5 124.5H85.5" stroke="#4E4DE8" stroke-width="2.5" stroke-linecap="round" stroke-linejoin="round"/>
<path d="M93.5 124.5H97.5" stroke="#4E4DE8" stroke-width="2.5" stroke-linecap="round" stroke-linejoin="round"/>
<path fill-rule="evenodd" clip-rule="evenodd" d="M160.711 99.6263C162.102 97.9232 163.352 96.1421 164.461 94.2987C166.901 90.2443 168.66 85.8884 169.734 81.3975C170.821 76.8555 171.209 72.1755 170.894 67.5296C170.62 63.4756 169.811 59.4475 168.465 55.5598C167.131 51.7028 165.268 47.984 162.875 44.515C161.45 42.4479 159.836 40.4696 158.034 38.6036C155.388 35.864 152.486 33.5219 149.402 31.5787C146.089 29.4908 142.566 27.8634 138.926 26.6984C134.368 25.2393 129.628 24.5054 124.886 24.5C121.197 24.4959 117.507 24.9328 113.902 25.8125C109.845 26.8028 105.895 28.3543 102.177 30.4692C98.9076 32.3284 95.817 34.623 92.988 37.3547C89.4328 40.7875 86.553 44.6572 84.3512 48.7985C82.1956 52.8531 80.6899 57.1682 79.8366 61.5887C78.9574 66.1429 78.7706 70.8091 79.2789 75.4178C79.9378 81.3911 81.7643 87.2677 84.7644 92.6785C86.684 96.1407 89.0842 99.4123 91.9663 102.396C96.5416 107.134 101.883 110.683 107.604 113.035C114.562 115.897 122.081 116.989 129.465 116.3C135.662 115.721 141.765 113.887 147.361 110.79" fill="white"/>
<path d="M160.711 99.6263C162.102 97.9232 163.352 96.1421 164.461 94.2987C166.901 90.2443 168.66 85.8884 169.734 81.3975C170.821 76.8555 171.209 72.1755 170.894 67.5296C170.62 63.4756 169.811 59.4475 168.465 55.5598C167.131 51.7028 165.268 47.984 162.875 44.515C161.45 42.4479 159.836 40.4696 158.034 38.6036C155.388 35.864 152.486 33.5219 149.402 31.5787C146.089 29.4908 142.566 27.8634 138.926 26.6984C134.368 25.2393 129.628 24.5054 124.886 24.5C121.197 24.4959 117.507 24.9328 113.902 25.8125C109.845 26.8028 105.895 28.3543 102.177 30.4692C98.9076 32.3284 95.817 34.623 92.988 37.3547C89.4328 40.7875 86.553 44.6572 84.3512 48.7985C82.1956 52.8531 80.6899 57.1682 79.8366 61.5887C78.9574 66.1429 78.7706 70.8091 79.2789 75.4178C79.9378 81.3911 81.7643 87.2677 84.7644 92.6785C86.684 96.1407 89.0842 99.4123 91.9663 102.396C96.5416 107.134 101.883 110.683 107.604 113.035C114.562 115.897 122.081 116.989 129.465 116.3C135.662 115.721 141.765 113.887 147.361 110.79" stroke="#3635BE" stroke-width="2.5" stroke-linecap="round" stroke-linejoin="round"/>
<path fill-rule="evenodd" clip-rule="evenodd" d="M150.701 108.878C153.607 107.008 156.191 104.674 157.872 102.791L150.701 108.878Z" fill="white"/>
<path d="M150.701 108.878C153.607 107.008 156.191 104.674 157.872 102.791" stroke="#3635BE" stroke-width="2.5" stroke-linecap="round"/>
<path d="M167 73.117C166.714 73.1221 166.427 73.1246 166.14 73.1246C140.886 73.1246 120.209 53.4362 118.476 28.5C98.3752 31.6706 83 49.1526 83 70.2434C83 93.5811 101.825 112.5 125.048 112.5C147.309 112.5 165.53 95.1145 167 73.117Z" fill="#D4D3F2"/>
<path fill-rule="evenodd" clip-rule="evenodd" d="M109.023 68.8729C107.8 67.7433 105.903 67.83 104.785 69.0666C103.668 70.3032 103.753 72.2214 104.977 73.3511L119.096 86.389C120.808 87.9704 123.465 87.849 125.029 86.1178C125.095 86.0442 125.095 86.0442 125.158 85.9687L145.307 61.4716C146.366 60.1837 146.192 58.2716 144.918 57.2008C143.644 56.13 141.752 56.306 140.693 57.5939L121.75 80.625L109.023 68.8729Z" fill="#28BA24" stroke="#4E4DE8" stroke-width="2.5" stroke-linecap="round"/>
<path fill-rule="evenodd" clip-rule="evenodd" d="M110.824 32.9128C108.874 33.6444 106.969 34.5335 105.128 35.5803C102.268 37.2069 99.5647 39.2146 97.0897 41.6046C96.0752 42.5843 95.1236 43.6047 94.2349 44.6607M91.485 48.3382C90.7783 49.406 90.128 50.5007 89.5341 51.618C89.0954 52.4432 88.6875 53.2807 88.3104 54.1289" fill="white"/>
<path d="M111.263 34.0831C111.909 33.8407 112.237 33.1201 111.994 32.4737C111.752 31.8274 111.031 31.5 110.385 31.7424L111.263 34.0831ZM105.128 35.5803L105.746 36.6668L105.128 35.5803ZM97.0897 41.6046L96.2214 40.7054L97.0897 41.6046ZM93.2785 43.8559C92.8339 44.3841 92.9018 45.1726 93.43 45.6171C93.9582 46.0616 94.7468 45.9938 95.1913 45.4656L93.2785 43.8559ZM92.5274 49.028C92.9084 48.4523 92.7505 47.6768 92.1748 47.2958C91.5991 46.9148 90.8235 47.0727 90.4426 47.6484L92.5274 49.028ZM89.5341 51.618L90.6378 52.2047L90.6378 52.2047L89.5341 51.618ZM87.1682 53.621C86.8878 54.2518 87.1718 54.9906 87.8026 55.271C88.4334 55.5515 89.1721 55.2675 89.4526 54.6367L87.1682 53.621ZM110.385 31.7424C108.373 32.497 106.408 33.414 104.51 34.4937L105.746 36.6668C107.529 35.6529 109.374 34.7918 111.263 34.0831L110.385 31.7424ZM104.51 34.4937C101.56 36.1717 98.7723 38.2421 96.2214 40.7054L97.9581 42.5038C100.357 40.187 102.977 38.2422 105.746 36.6668L104.51 34.4937ZM96.2214 40.7054C95.1759 41.7151 94.1948 42.767 93.2785 43.8559L95.1913 45.4656C96.0523 44.4424 96.9746 43.4535 97.9581 42.5038L96.2214 40.7054ZM90.4426 47.6484C89.7137 48.7498 89.0429 49.8789 88.4303 51.0313L90.6378 52.2047C91.2131 51.1226 91.8429 50.0623 92.5274 49.028L90.4426 47.6484ZM88.4303 51.0313C87.9779 51.8824 87.5572 52.7462 87.1682 53.621L89.4526 54.6367C89.8179 53.8152 90.213 53.004 90.6378 52.2047L88.4303 51.0313Z" fill="#4E4DE8"/>
</svg>
