<svg width="60" height="60" viewBox="0 0 60 60" fill="none" xmlns="http://www.w3.org/2000/svg">
<path d="M24.7734 5.17373L24.0606 5.88653L25.5456 7.37153L27.03 8.85653L18.8928 8.88053L10.7556 8.91593L10.7202 9.88973L10.6848 10.8755H18.9168H27.1488L25.6044 12.4199L24.06 13.9643L24.8082 14.7005L25.545 15.4487L28.3008 12.6809L31.0686 9.92513L28.3362 7.19273C26.8392 5.69573 25.5804 4.46033 25.545 4.46033C25.5096 4.46093 25.1652 4.78193 24.7734 5.17373Z" fill="white"/>
<path d="M3.35581 11.2677L0.600006 14.0235L3.33241 16.7559L6.06481 19.4883L6.80101 18.7401L7.54921 18.0039L6.06421 16.5189L4.57921 15.0339L12.7164 15.0099L20.8536 14.9745L20.889 13.9887L20.9244 13.0149H12.6924H4.46041L6.00481 11.4705L7.54921 9.92608L6.83641 9.21328L6.12361 8.50048L3.35581 11.2677Z" fill="white"/>
<path d="M34.989 10.1151L33.0882 11.2197L33.0288 21.8037L32.9694 32.3877L31.473 29.7981L29.988 27.2091L27.612 27.1851L25.248 27.1497L24.084 29.1807L22.932 31.2123L24.987 34.7997L27.054 38.3751L27.612 41.1669L28.182 43.9587L31.6146 47.4033L35.0478 50.8479V53.1999V55.5399H36.0576H37.068V52.7841V50.0163L33.564 46.5123L30.0714 43.0083L29.5134 40.3353C29.2164 38.8623 28.896 37.5321 28.8126 37.3659C28.7292 37.1997 27.8976 35.7621 26.9832 34.1823C26.0562 32.5899 25.308 31.2477 25.308 31.1883C25.308 31.1409 25.5576 30.6657 25.8546 30.1311L26.4126 29.1573L27.6126 29.1927L28.8126 29.2281L31.9008 34.5855L34.989 39.9549L35.0484 26.1639L35.1078 12.3729L36.1056 11.8029L37.0914 11.2329L38.0892 11.7915L39.087 12.3615V20.7585V29.1687H40.0968H41.1066V27.1491V25.1295L41.5578 24.8565C41.7954 24.7023 42.2706 24.4287 42.603 24.2385L43.197 23.9061L44.1594 24.4641L45.1098 25.0107L45.1932 26.5551C45.2406 27.3987 45.2406 28.3371 45.2052 28.6341L45.1218 29.1687H46.203H47.2842V27.7077V26.2587L48.282 25.7001L49.2798 25.1301L50.325 25.7121L51.3822 26.2941L51.3348 27.7317L51.2874 29.1693H52.3092H53.331L53.3664 28.1361L53.4018 27.1029L54.3756 26.5443L55.338 25.9863L56.3598 26.5803L57.3816 27.1743V33.3147V39.4557L55.362 44.8371L53.3424 50.2185V52.8795V55.5405H54.3522H55.362V53.0697V50.5989L57.3816 45.2175L59.4012 39.8247V32.9223V26.0091L57.4056 24.8571C56.301 24.2277 55.374 23.7051 55.3266 23.7051C55.2912 23.7051 54.8514 23.9427 54.3642 24.2397C53.8656 24.5367 53.4018 24.7743 53.3424 24.7743C53.271 24.7743 52.3446 24.3345 51.2634 23.7885L49.2918 22.8147L48.6744 23.1591C48.33 23.3493 47.8668 23.6103 47.6412 23.7411L47.2134 23.9787L45.4434 22.9335C44.4576 22.3515 43.5546 21.8169 43.4238 21.7335C43.2102 21.6027 43.0674 21.6501 42.1764 22.1733L41.1666 22.7553L41.1072 16.9701L41.0478 11.1849L39.147 10.0803C38.1018 9.47433 37.1634 8.98772 37.068 8.98772C36.9726 8.99852 36.0342 9.49773 34.989 10.1151Z" fill="white"/>
</svg>
